<svg width="33" height="32" viewBox="0 0 33 32" fill="none" xmlns="http://www.w3.org/2000/svg">
<path d="M24.0217 7.27984C23.7052 7.27984 23.3959 7.37368 23.1328 7.54949C22.8697 7.7253 22.6646 7.97518 22.5435 8.26754C22.4224 8.55991 22.3907 8.88161 22.4524 9.19198C22.5142 9.50235 22.6666 9.78744 22.8903 10.0112C23.1141 10.235 23.3992 10.3874 23.7095 10.4491C24.0199 10.5108 24.3416 10.4791 24.634 10.358C24.9263 10.2369 25.1762 10.0319 25.352 9.76875C25.5279 9.50563 25.6217 9.19629 25.6217 8.87984C25.6217 8.45549 25.4531 8.04852 25.1531 7.74847C24.853 7.44841 24.446 7.27984 24.0217 7.27984ZM30.155 10.5065C30.1289 9.40026 29.9217 8.30577 29.5417 7.2665C29.2042 6.37657 28.6763 5.57112 27.995 4.9065C27.3348 4.22307 26.5278 3.69874 25.635 3.37317C24.5986 2.98138 23.5028 2.76945 22.395 2.7465C20.9817 2.6665 20.5284 2.6665 16.9017 2.6665C13.275 2.6665 12.8217 2.6665 11.4084 2.7465C10.3006 2.76945 9.20482 2.98138 8.16836 3.37317C7.27767 3.70284 6.47151 4.22661 5.80836 4.9065C5.12493 5.56674 4.60059 6.37376 4.27503 7.2665C3.88324 8.30296 3.67131 9.39871 3.64836 10.5065C3.56836 11.9198 3.56836 12.3732 3.56836 15.9998C3.56836 19.6265 3.56836 20.0798 3.64836 21.4932C3.67131 22.601 3.88324 23.6967 4.27503 24.7332C4.60059 25.6259 5.12493 26.4329 5.80836 27.0932C6.47151 27.7731 7.27767 28.2968 8.16836 28.6265C9.20482 29.0183 10.3006 29.2302 11.4084 29.2532C12.8217 29.3332 13.275 29.3332 16.9017 29.3332C20.5284 29.3332 20.9817 29.3332 22.395 29.2532C23.5028 29.2302 24.5986 29.0183 25.635 28.6265C26.5278 28.3009 27.3348 27.7766 27.995 27.0932C28.678 26.4299 29.2061 25.6241 29.5417 24.7332C29.9217 23.6939 30.1289 22.5994 30.155 21.4932C30.155 20.0798 30.235 19.6265 30.235 15.9998C30.235 12.3732 30.235 11.9198 30.155 10.5065ZM27.755 21.3332C27.7456 22.1796 27.5923 23.0182 27.3017 23.8132C27.0888 24.3934 26.7469 24.9177 26.3017 25.3465C25.8689 25.7868 25.3458 26.128 24.7684 26.3465C23.9734 26.6371 23.1347 26.7904 22.2884 26.7998C20.955 26.8665 20.4617 26.8798 16.955 26.8798C13.4484 26.8798 12.955 26.8798 11.6217 26.7998C10.7428 26.8171 9.86763 26.6818 9.03503 26.3998C8.48328 26.1696 7.98423 25.8293 7.56836 25.3998C7.12581 24.9715 6.78815 24.4468 6.58169 23.8665C6.25509 23.0604 6.07449 22.2026 6.04836 21.3332C6.04836 19.9998 5.96836 19.5065 5.96836 15.9998C5.96836 12.4932 5.96836 11.9998 6.04836 10.6665C6.05322 9.80114 6.21121 8.94347 6.51503 8.13317C6.74976 7.57038 7.11005 7.06871 7.56836 6.6665C7.97226 6.20676 8.4732 5.84243 9.03503 5.59984C9.84756 5.30581 10.7043 5.1525 11.5684 5.1465C12.9017 5.1465 13.395 5.0665 16.9017 5.0665C20.4084 5.0665 20.9017 5.0665 22.235 5.1465C23.0814 5.15595 23.92 5.30925 24.715 5.59984C25.3209 5.82471 25.8647 6.1903 26.3017 6.6665C26.7373 7.0772 27.0785 7.57763 27.3017 8.13317C27.5983 8.94501 27.7517 9.80219 27.755 10.6665C27.8217 11.9998 27.835 12.4932 27.835 15.9998C27.835 19.5065 27.8217 19.9998 27.755 21.3332ZM16.9017 9.15984C15.5494 9.16247 14.2283 9.56587 13.1052 10.3191C11.9822 11.0723 11.1075 12.1414 10.5919 13.3915C10.0762 14.6416 9.94266 16.0165 10.2081 17.3424C10.4735 18.6684 11.126 19.8859 12.0831 20.8411C13.0402 21.7964 14.259 22.4465 15.5855 22.7094C16.912 22.9722 18.2866 22.836 19.5357 22.3179C20.7847 21.7998 21.8522 20.9231 22.6032 19.7985C23.3542 18.674 23.755 17.3521 23.755 15.9998C23.7568 15.1 23.5806 14.2086 23.2367 13.3771C22.8927 12.5456 22.3878 11.7902 21.7509 11.1546C21.1139 10.5189 20.3576 10.0154 19.5254 9.67308C18.6932 9.33074 17.8015 9.15632 16.9017 9.15984ZM16.9017 20.4398C16.0235 20.4398 15.1651 20.1794 14.435 19.6916C13.7048 19.2037 13.1357 18.5103 12.7997 17.699C12.4636 16.8876 12.3757 15.9949 12.547 15.1336C12.7183 14.2724 13.1412 13.4812 13.7621 12.8603C14.3831 12.2393 15.1742 11.8165 16.0355 11.6452C16.8968 11.4738 17.7895 11.5618 18.6008 11.8978C19.4121 12.2339 20.1055 12.8029 20.5934 13.5331C21.0813 14.2633 21.3417 15.1217 21.3417 15.9998C21.3417 16.5829 21.2268 17.1603 21.0037 17.699C20.7806 18.2376 20.4535 18.7271 20.0412 19.1394C19.629 19.5517 19.1395 19.8787 18.6008 20.1019C18.0621 20.325 17.4848 20.4398 16.9017 20.4398Z" fill="white"/>
</svg>
